<?xml version="1.0" encoding="UTF-8" standalone="no"?>

<svg
   version="1.1"
   id="svg2"
   width="384"
   height="384"
   viewBox="0 0 384 384"
   sodipodi:docname="Malta_logo.ai"
   xmlns:inkscape="http://www.inkscape.org/namespaces/inkscape"
   xmlns:sodipodi="http://sodipodi.sourceforge.net/DTD/sodipodi-0.dtd"
   xmlns="http://www.w3.org/2000/svg"
   xmlns:svg="http://www.w3.org/2000/svg">
  <defs
     id="defs6">
    <clipPath
       clipPathUnits="userSpaceOnUse"
       id="clipPath144">
      <path
         d="M 0,288 H 288 V 0 H 0 Z"
         id="path142" />
    </clipPath>
  </defs>
  <sodipodi:namedview
     id="namedview4"
     pagecolor="#ffffff"
     bordercolor="#000000"
     borderopacity="0.25"
     inkscape:showpageshadow="2"
     inkscape:pageopacity="0.0"
     inkscape:pagecheckerboard="0"
     inkscape:deskcolor="#d1d1d1" />
  <g
     id="g8"
     inkscape:groupmode="layer"
     inkscape:label="Malta_logo"
     transform="matrix(1.3333333,0,0,-1.3333333,0,384)">
    <g
       id="g10"
       transform="translate(31.2052,190.7098)">
      <path
         d="M 0,0 V -46.71 H -16.11 V 6.681 l 8.055,-3.334 z"
         style="fill:#247fbc;fill-opacity:1;fill-rule:nonzero;stroke:none"
         id="path12" />
    </g>
    <g
       id="g14"
       transform="translate(144,144)">
      <path
         d="M 0,0 H -98.223 V 40.682 Z"
         style="fill:#247fbc;fill-opacity:1;fill-rule:nonzero;stroke:none"
         id="path16" />
    </g>
    <g
       id="g18"
       transform="translate(64.2407,64.2409)">
      <path
         d="m 0,0 -11.388,-11.402 -37.757,37.757 16.109,6.681 z"
         style="fill:#247fbc;fill-opacity:1;fill-rule:nonzero;stroke:none"
         id="path20" />
    </g>
    <g
       id="g22"
       transform="translate(144,144)">
      <path
         d="m 0,0 -69.446,-69.459 -28.763,28.763 z"
         style="fill:#247fbc;fill-opacity:1;fill-rule:nonzero;stroke:none"
         id="path24" />
    </g>
    <g
       id="g26"
       transform="translate(97.2765,256.7812)">
      <path
         d="m 0,0 -33.022,-33.036 h -0.014 l -11.388,11.402 37.744,37.757 z"
         style="fill:#247fbc;fill-opacity:1;fill-rule:nonzero;stroke:none"
         id="path28" />
    </g>
    <g
       id="g30"
       transform="translate(144,144)">
      <path
         d="m 0,0 -69.446,69.446 28.764,28.763 z"
         style="fill:#247fbc;fill-opacity:1;fill-rule:nonzero;stroke:none"
         id="path32" />
    </g>
    <g
       id="g34"
       transform="translate(64.2407,223.7455)">
      <path
         d="m 0,0 -33.036,-33.036 -8.054,3.347 -8.055,3.334 37.757,37.757 z"
         style="fill:#247fbc;fill-opacity:1;fill-rule:nonzero;stroke:none"
         id="path36" />
    </g>
    <g
       id="g38"
       transform="translate(144,144)">
      <path
         d="m 0,0 -98.223,40.682 28.777,28.764 z"
         style="fill:#247fbc;fill-opacity:1;fill-rule:nonzero;stroke:none"
         id="path40" />
    </g>
    <g
       id="g42"
       transform="translate(144,144)">
      <path
         d="M 0,0 V -98.223 H -40.682 Z"
         style="fill:#247fbc;fill-opacity:1;fill-rule:nonzero;stroke:none"
         id="path44" />
    </g>
    <g
       id="g46"
       transform="translate(144,31.2052)">
      <path
         d="M 0,0 V -16.11 H -53.404 L -46.724,0 Z"
         style="fill:#247fbc;fill-opacity:1;fill-rule:nonzero;stroke:none"
         id="path48" />
    </g>
    <g
       id="g50"
       transform="translate(184.6822,242.2091)">
      <path
         d="M 0,0 -40.682,-98.209 V 0 Z"
         style="fill:#247fbc;fill-opacity:1;fill-rule:nonzero;stroke:none"
         id="path52" />
    </g>
    <g
       id="g54"
       transform="translate(197.3905,272.9044)">
      <path
         d="M 0,0 -6.681,-16.123 H -53.39 V 0 Z"
         style="fill:#247fbc;fill-opacity:1;fill-rule:nonzero;stroke:none"
         id="path56" />
    </g>
    <g
       id="g58"
       transform="translate(144,242.2091)">
      <path
         d="M 0,0 V -98.209 L -40.682,0 Z"
         style="fill:#247fbc;fill-opacity:1;fill-rule:nonzero;stroke:none"
         id="path60" />
    </g>
    <g
       id="g62"
       transform="translate(144,272.9044)">
      <path
         d="M 0,0 V -16.123 H -46.724 L -50.057,-8.055 -53.404,0 Z"
         style="fill:#247fbc;fill-opacity:1;fill-rule:nonzero;stroke:none"
         id="path64" />
    </g>
    <g
       id="g66"
       transform="translate(213.4594,74.5408)">
      <path
         d="M 0,0 -28.777,-28.764 -69.459,69.459 Z"
         style="fill:#247fbc;fill-opacity:1;fill-rule:nonzero;stroke:none"
         id="path68" />
    </g>
    <g
       id="g70"
       transform="translate(235.1475,52.8526)">
      <path
         d="m 0,0 -37.757,-37.757 -6.667,16.11 33.036,33.035 z"
         style="fill:#247fbc;fill-opacity:1;fill-rule:nonzero;stroke:none"
         id="path72" />
    </g>
    <g
       id="g74"
       transform="translate(242.2226,184.6824)">
      <path
         d="m 0,0 -98.223,-40.682 69.446,69.445 z"
         style="fill:#247fbc;fill-opacity:1;fill-rule:nonzero;stroke:none"
         id="path76" />
    </g>
    <g
       id="g78"
       transform="translate(272.9045,197.3904)">
      <path
         d="m 0,0 -16.123,-6.681 -33.036,33.036 11.402,11.402 z"
         style="fill:#247fbc;fill-opacity:1;fill-rule:nonzero;stroke:none"
         id="path80" />
    </g>
    <g
       id="g82"
       transform="translate(242.2226,144)">
      <path
         d="M 0,0 V -40.682 L -0.014,-40.696 -98.223,0 Z"
         style="fill:#247fbc;fill-opacity:1;fill-rule:nonzero;stroke:none"
         id="path84" />
    </g>
    <g
       id="g86"
       transform="translate(272.9045,144)">
      <path
         d="m 0,0 v -53.404 l -16.123,6.681 V 0 Z"
         style="fill:#247fbc;fill-opacity:1;fill-rule:nonzero;stroke:none"
         id="path88" />
    </g>
    <g
       id="g90"
       transform="translate(235.1475,235.1474)">
      <path
         d="m 0,0 -11.402,-11.402 -33.022,33.036 6.667,16.123 z"
         style="fill:#247fbc;fill-opacity:1;fill-rule:nonzero;stroke:none"
         id="path92" />
    </g>
    <g
       id="g94"
       transform="translate(213.4458,213.4456)">
      <path
         d="m 0,0 -69.446,-69.446 40.682,98.21 z"
         style="fill:#247fbc;fill-opacity:1;fill-rule:nonzero;stroke:none"
         id="path96" />
    </g>
    <g
       id="g98"
       transform="translate(97.2765,31.2052)">
      <path
         d="m 0,0 -6.68,-16.11 -37.744,37.744 11.388,11.402 z"
         style="fill:#247fbc;fill-opacity:1;fill-rule:nonzero;stroke:none"
         id="path100" />
    </g>
    <g
       id="g102"
       transform="translate(144,144)">
      <path
         d="m 0,0 -40.696,-98.209 -28.75,28.75 z"
         style="fill:#247fbc;fill-opacity:1;fill-rule:nonzero;stroke:none"
         id="path104" />
    </g>
    <g
       id="g106"
       transform="translate(272.9045,197.3904)">
      <path
         d="M 0,0 V -53.39 H -16.123 V -6.681 Z"
         style="fill:#247fbc;fill-opacity:1;fill-rule:nonzero;stroke:none"
         id="path108" />
    </g>
    <g
       id="g110"
       transform="translate(242.2226,184.6824)">
      <path
         d="M 0,0 V -40.682 H -98.223 Z"
         style="fill:#247fbc;fill-opacity:1;fill-rule:nonzero;stroke:none"
         id="path112" />
    </g>
    <g
       id="g114"
       transform="translate(31.2052,144)">
      <path
         d="m 0,0 v -46.723 l -16.11,-6.681 V 0 Z"
         style="fill:#247fbc;fill-opacity:1;fill-rule:nonzero;stroke:none"
         id="path116" />
    </g>
    <g
       id="g118"
       transform="translate(144,144)">
      <path
         d="M 0,0 -98.223,-40.682 V 0 Z"
         style="fill:#247fbc;fill-opacity:1;fill-rule:nonzero;stroke:none"
         id="path120" />
    </g>
    <g
       id="g122"
       transform="translate(197.3905,15.0955)">
      <path
         d="M 0,0 H -53.39 V 16.11 H -6.667 Z"
         style="fill:#247fbc;fill-opacity:1;fill-rule:nonzero;stroke:none"
         id="path124" />
    </g>
    <g
       id="g126"
       transform="translate(184.6822,45.7773)">
      <path
         d="M 0,0 H -40.682 V 98.223 Z"
         style="fill:#247fbc;fill-opacity:1;fill-rule:nonzero;stroke:none"
         id="path128" />
    </g>
    <g
       id="g130"
       transform="translate(272.9045,90.5959)">
      <path
         d="m 0,0 -37.757,-37.743 -11.388,11.388 33.022,33.036 z"
         style="fill:#247fbc;fill-opacity:1;fill-rule:nonzero;stroke:none"
         id="path132" />
    </g>
    <g
       id="g134"
       transform="translate(242.209,103.304)">
      <path
         d="M 0,0 -28.75,-28.763 -98.209,40.696 Z"
         style="fill:#247fbc;fill-opacity:1;fill-rule:nonzero;stroke:none"
         id="path136" />
    </g>
    <g
       id="g138">
      <g
         id="g140"
         clip-path="url(#clipPath144)">
        <g
           id="g146"
           transform="translate(168.4374,212.1535)">
          <path
             d="m 0,0 c 7.899,-10.678 -24.335,-17.444 -25.258,-30.847 -0.004,-0.065 -0.037,-0.123 -0.091,-0.159 -1.078,-0.73 -2.031,-1.656 -2.854,-2.657 -0.07,-0.086 -0.189,-0.105 -0.283,-0.047 -5.657,3.414 -13.728,1.322 -17.037,-4.309 -0.055,-0.093 -1.344,-1.764 -1.438,-1.709 -1.95,1.144 -3.582,0.947 -5.798,0.858 -3.874,-0.156 -8.75,-4.908 -8.515,-10.22 0.004,-0.087 -0.044,-0.166 -0.122,-0.203 -4.564,-2.198 -5.891,-8.805 -2.409,-12.57 0.071,-0.077 0.08,-0.191 0.018,-0.276 -4.165,-5.696 -6.507,-12.512 -6.984,-19.416 -0.009,-0.14 -0.136,-0.176 -0.273,-0.203 -1.077,-0.216 -1.553,-0.121 -2.157,0.133 -0.048,0.021 -4.412,4.119 -4.445,4.16 -3.359,4.203 -3.787,5.191 -5.547,14.175 -1.542,7.87 -2.018,10.964 -0.103,14.913 0.028,0.058 23.86,8.038 25.389,8.831 0.702,0.364 0.99,0.515 1.014,0.572 4.003,9.4 40.674,32.431 50.278,39.962 C -4.517,2.522 -1.549,2.079 0,0"
             style="fill:#ffffff;fill-opacity:1;fill-rule:nonzero;stroke:none"
             id="path148" />
        </g>
        <g
           id="g150"
           transform="translate(168.2224,187.6349)">
          <path
             d="m 0,0 c 13.257,3.083 30.29,12.314 31.611,3.15 0.535,-2.231 -0.861,-4.481 -3.114,-5.011 -1.096,-1.18 -30.525,-5.315 -33.292,-9.946 -2.077,-3.475 32.836,5.407 34.256,5.922 6.036,2.191 13.726,0.312 8.186,-5.399 -4.573,-4.712 -29.558,-7.302 -36,-9.697 -2.673,0.798 -5.911,0.444 -8.474,-0.638 3.898,8.258 -3.363,15.999 -12.321,17.101 -0.219,0.027 -0.27,0.317 -0.074,0.419 1.016,0.529 3.863,0.49 5.768,0.706 C -11.739,-3.198 -1.677,-0.39 0,0"
             style="fill:#ffffff;fill-opacity:1;fill-rule:nonzero;stroke:none"
             id="path152" />
        </g>
        <g
           id="g154"
           transform="translate(168.2224,187.6349)">
          <path
             d="m 0,0 c 13.257,3.083 30.29,12.314 31.611,3.15 0.535,-2.231 -0.861,-4.481 -3.114,-5.011 -1.096,-1.18 -30.525,-5.315 -33.292,-9.946 -2.077,-3.475 32.836,5.407 34.256,5.922 6.036,2.191 13.726,0.312 8.186,-5.399 -4.573,-4.712 -29.558,-7.302 -36,-9.697 -2.673,0.798 -5.911,0.444 -8.474,-0.638 3.898,8.258 -3.363,15.999 -12.321,17.101 -0.219,0.027 -0.27,0.317 -0.074,0.419 1.016,0.529 3.863,0.49 5.768,0.706 C -11.739,-3.198 -1.677,-0.39 0,0 Z"
             style="fill:none;stroke:#ffffff;stroke-width:0.5;stroke-linecap:butt;stroke-linejoin:miter;stroke-miterlimit:10;stroke-dasharray:none;stroke-opacity:1"
             id="path156" />
        </g>
        <g
           id="g158"
           transform="translate(199.4887,169.375)">
          <path
             d="m 0,0 c 5.275,1.318 7.263,-6.918 1.941,-8.094 -5.557,-1.303 -16.87,-3.974 -22.385,-5.269 -0.329,2.881 -1.73,5.723 -3.798,7.625 C -24.307,-5.659 -0.004,-0.034 0,0"
             style="fill:#ffffff;fill-opacity:1;fill-rule:nonzero;stroke:none"
             id="path160" />
        </g>
        <g
           id="g162"
           transform="translate(199.4887,169.375)">
          <path
             d="m 0,0 c 5.275,1.318 7.263,-6.918 1.941,-8.094 -5.557,-1.303 -16.87,-3.974 -22.385,-5.269 -0.329,2.881 -1.73,5.723 -3.798,7.625 C -24.307,-5.659 -0.004,-0.034 0,0 Z"
             style="fill:none;stroke:#ffffff;stroke-width:0.5;stroke-linecap:butt;stroke-linejoin:miter;stroke-miterlimit:10;stroke-dasharray:none;stroke-opacity:1"
             id="path164" />
        </g>
        <g
           id="g166"
           transform="translate(195.2784,151.3074)">
          <path
             d="m 0,0 c 0.987,-3.867 -3.157,-5.339 -6.226,-5.74 -1.412,0.635 -2.966,0.994 -4.576,0.954 -0.567,2.264 -1.965,4.239 -3.679,5.653 C -10.836,1.171 -1.3,6.162 0,0"
             style="fill:#ffffff;fill-opacity:1;fill-rule:nonzero;stroke:none"
             id="path168" />
        </g>
        <g
           id="g170"
           transform="translate(195.2784,151.3074)">
          <path
             d="m 0,0 c 0.987,-3.867 -3.157,-5.339 -6.226,-5.74 -1.412,0.635 -2.966,0.994 -4.576,0.954 -0.567,2.264 -1.965,4.239 -3.679,5.653 C -10.836,1.171 -1.3,6.162 0,0 Z"
             style="fill:none;stroke:#ffffff;stroke-width:0.5;stroke-linecap:butt;stroke-linejoin:miter;stroke-miterlimit:10;stroke-dasharray:none;stroke-opacity:1"
             id="path172" />
        </g>
        <g
           id="g174"
           transform="translate(186.495,130.4285)">
          <path
             d="m 0,0 c -0.014,-0.025 -2.619,-0.525 -2.597,-0.579 4.482,-8.444 -3.874,-17.219 -12.361,-12.975 -0.058,-3.3 -1.267,-7.117 -5.022,-7.826 -21.349,0.516 28.438,17.37 5.272,29.128 5.064,5.124 0.802,14.548 -6.339,14.327 0.373,2.455 -0.26,5.024 -1.919,6.948 -6.608,5.333 14.558,5.479 11.104,-6.951 -2.349,-4.744 6.583,0.534 5.994,-10.93 C 2.51,15.307 9.069,3.671 0,0"
             style="fill:#ffffff;fill-opacity:1;fill-rule:nonzero;stroke:none"
             id="path176" />
        </g>
        <g
           id="g178"
           transform="translate(186.495,130.4285)">
          <path
             d="m 0,0 c -0.014,-0.025 -2.619,-0.525 -2.597,-0.579 4.482,-8.444 -3.874,-17.219 -12.361,-12.975 -0.058,-3.3 -1.267,-7.117 -5.022,-7.826 -21.349,0.516 28.438,17.37 5.272,29.128 5.064,5.124 0.802,14.548 -6.339,14.327 0.373,2.455 -0.26,5.024 -1.919,6.948 -6.608,5.333 14.558,5.479 11.104,-6.951 -2.349,-4.744 6.583,0.534 5.994,-10.93 C 2.51,15.307 9.069,3.671 0,0 Z"
             style="fill:none;stroke:#ffffff;stroke-width:0.5;stroke-linecap:butt;stroke-linejoin:miter;stroke-miterlimit:10;stroke-dasharray:none;stroke-opacity:1"
             id="path180" />
        </g>
        <g
           id="g182"
           transform="translate(155.6211,164.938)">
          <path
             d="m 0,0 c -0.798,3.512 -4.021,6.303 -7.666,6.569 -3.522,0.509 -6.513,-1.95 -8.95,-4.132 -3.179,4.653 -9.97,5.24 -14.235,1.086 l -2.16,-1.773 c -0.631,-0.52 -13.558,-11.254 -13.625,-11.332 -0.775,-0.842 -2.093,-2.924 -2.393,-0.609 -0.786,3.212 2.238,5.04 5.063,5.295 0.055,0.011 -0.465,1.994 -0.454,2.016 -1.662,7.256 5.704,9.837 10.645,5.395 l 3.611,3.278 c 2.714,6.204 11.067,7.046 15.597,1.241 0.089,0 1.208,2.493 1.241,2.504 C -7.322,21.136 9.205,8.962 0,0"
             style="fill:#ffffff;fill-opacity:1;fill-rule:nonzero;stroke:none"
             id="path184" />
        </g>
        <g
           id="g186"
           transform="translate(155.6211,164.938)">
          <path
             d="m 0,0 c -0.798,3.512 -4.021,6.303 -7.666,6.569 -3.522,0.509 -6.513,-1.95 -8.95,-4.132 -3.179,4.653 -9.97,5.24 -14.235,1.086 l -2.16,-1.773 c -0.631,-0.52 -13.558,-11.254 -13.625,-11.332 -0.775,-0.842 -2.093,-2.924 -2.393,-0.609 -0.786,3.212 2.238,5.04 5.063,5.295 0.055,0.011 -0.465,1.994 -0.454,2.016 -1.662,7.256 5.704,9.837 10.645,5.395 l 3.611,3.278 c 2.714,6.204 11.067,7.046 15.597,1.241 0.089,0 1.208,2.493 1.241,2.504 C -7.322,21.136 9.205,8.962 0,0 Z"
             style="fill:none;stroke:#ffffff;stroke-width:0.75;stroke-linecap:butt;stroke-linejoin:miter;stroke-miterlimit:10;stroke-dasharray:none;stroke-opacity:1"
             id="path188" />
        </g>
        <g
           id="g190"
           transform="translate(142.4498,147.4836)">
          <path
             d="m 0,0 c 0,0 11.53,9.874 11.53,9.874 2.894,2.576 7.866,0.01 7.381,-3.819 C 19.266,3.121 7.698,-4.39 6.073,-6.289 5.095,-7.084 5.445,-8.35 6.122,-9.295 c 2.125,-2.967 12.226,8.707 13.871,9.15 2.919,2.576 7.846,0.016 7.38,-3.819 0.737,-2.924 -10.113,-9.253 -13.104,-12.648 -0.578,-0.656 -0.575,-1.637 0.021,-2.277 0.558,-0.6 1.479,-0.699 2.154,-0.231 l 7.293,5.046 c 4.399,3.777 10.342,-3.195 5.781,-6.849 0,0 -9.703,-7.213 -12.336,-10.224 -11.273,-12.891 -21.332,-14.008 -29.471,-16.14 -4.494,-1.178 -9.182,-1.435 -13.108,-3.9 -4.24,-2.663 -8.823,-5.541 -8.823,-5.541 -0.154,-0.074 -7.185,2.419 -12.933,9.255 -5.688,6.764 -6.779,14.241 -6.741,14.331 0.046,0.093 12.636,13.558 12.603,13.692 -0.043,9.562 4.313,18.827 11.979,25.378 4.488,1.959 17.811,20.122 22.551,11.214 -0.019,-0.172 -7.835,-6.196 -7.586,-6.45 0,0 -0.234,-3.533 2.068,-2.735 C -11.935,8.076 1.667,18.893 1.844,18.88 4.736,21.45 9.71,18.893 9.225,15.06 9.579,12.161 -1.016,4.95 -3.645,2.142 -4.239,1.508 -2.809,-0.701 -0.934,-0.455 -0.676,-0.421 0,0 0,0"
             style="fill:#ffffff;fill-opacity:1;fill-rule:nonzero;stroke:none"
             id="path192" />
        </g>
        <g
           id="g194"
           transform="translate(171.1068,97.0867)">
          <path
             d="M 0,0 C 1.368,-5.571 -6.346,-7.332 -7.578,-1.73 -8.947,3.84 -1.232,5.602 0,0"
             style="fill:#ffffff;fill-opacity:1;fill-rule:nonzero;stroke:none"
             id="path196" />
        </g>
        <g
           id="g198"
           transform="translate(171.1068,97.0867)">
          <path
             d="M 0,0 C 1.368,-5.571 -6.346,-7.332 -7.578,-1.73 -8.947,3.84 -1.232,5.602 0,0 Z"
             style="fill:none;stroke:#ffffff;stroke-width:1;stroke-linecap:butt;stroke-linejoin:miter;stroke-miterlimit:10;stroke-dasharray:none;stroke-opacity:1"
             id="path200" />
        </g>
        <g
           id="g202"
           transform="translate(155.5358,92.2108)">
          <path
             d="M 0,0 C 1.501,-6.006 -8.712,-8.343 -10.022,-2.293 -11.523,3.713 -1.31,6.05 0,0"
             style="fill:#ffffff;fill-opacity:1;fill-rule:nonzero;stroke:none"
             id="path204" />
        </g>
        <g
           id="g206"
           transform="translate(155.5358,92.2108)">
          <path
             d="M 0,0 C 1.501,-6.006 -8.712,-8.343 -10.022,-2.293 -11.523,3.713 -1.31,6.05 0,0 Z"
             style="fill:none;stroke:#ffffff;stroke-width:1;stroke-linecap:butt;stroke-linejoin:miter;stroke-miterlimit:10;stroke-dasharray:none;stroke-opacity:1"
             id="path208" />
        </g>
      </g>
    </g>
  </g>
</svg>
